# xmcd
#
# Track frame offsets: 
#        150
#        15783
#        37883
#        55534
#        71952
#        89376
#        108519
#        126922
#        140081
#        158086
#        172569
#        190973
#        207506
#        226216
#        251675
#        269719
#        279978
#        294313
#        309716
#        326237
#        341459
#
# Disc length: 4798 seconds
#
# Revision: 0
# Processed by: cddbd v1.5.2PL0 Copyright (c) Steve Scherf et al.
# Submitted via: ExactAudioCopy v0.99pb4
#
DISCID=3112bc15
DTITLE=Various Artist - prevue promo 1119A-1
DYEAR=2003
DGENRE=pop
TTITLE0=Avalon - New Day
TTITLE1=Michael English - Freedom
TTITLE2=3 Doors Down - Here Without You(Radio Edit)
TTITLE3=Guster - Amsterdam (Gonna Write You A Letter)
TTITLE4=Jim Brickman and Collin Raye - Peace (Where The Heart Is)
TTITLE5=Vince Madison and Hannah Alkire - Canyon Lands(Instrumental - 
TTITLE5=Album Version)
TTITLE6=Becky Baeling - Heaven Is A Place On Earth(Dance Mix)
TTITLE7=R. Kelly - Thoia Thoing
TTITLE8=Baby Bash - Suga Suga
TTITLE9=Lumidee and 50 Cent - Never Leave You - Uh Ooh, Uh Oooh!(Remix
TTITLE9=)
TTITLE10=Mary J. Blige and Method Man - Love at 1st Sight(Radio Edit n
TTITLE10=o Intro)
TTITLE11=Joan Osborne - Why Can't We Live Together
TTITLE12=Bonepony - Jubilee
TTITLE13=Sarah Shannon  I'll Run Away
TTITLE14=Blue October - Calling You
TTITLE15=Kings Of Leon - Molly's Chambers
TTITLE16=Ill Nino - How Can I Live
TTITLE17=NU - Any Other Girl
TTITLE18=Cold - Suffocate
TTITLE19=Yellowcard - Way Away
TTITLE20=V-Shape Mind - Monsters
EXTD=
EXTT0=
EXTT1=
EXTT2=
EXTT3=
EXTT4=
EXTT5=
EXTT6=
EXTT7=
EXTT8=
EXTT9=
EXTT10=
EXTT11=
EXTT12=
EXTT13=
EXTT14=
EXTT15=
EXTT16=
EXTT17=
EXTT18=
EXTT19=
EXTT20=
PLAYORDER=
